<svg xmlns="http://www.w3.org/2000/svg" width="3162.283" height="570.229" viewBox="0 -16.228 3162.283 570.229"><g transform="matrix(8.11416 0 0 8.11416 81.142 81.142)"><defs id="SvgjsDefs10268"><linearGradient id="SvgjsLinearGradient10275"><stop id="SvgjsStop10276" stop-color="#7f00ff" offset="0"/><stop id="SvgjsStop10277" stop-color="#e100ff" offset="1"/></linearGradient></defs><g id="SvgjsG10269" transform="matrix(15.40391 0 0 15.40391 -4.372 -16.372)" fill="#1e376d"><g xmlns="http://www.w3.org/2000/svg"><path d="M2.77 1.478h.555v-.193h-.361V.933h-.569v.193h.375v.352zM2.396 1.93h.194v-.569h-.353V1h-.193v.555h.352v.375zM3.164 2.205h.194v-.36h.352v-.569h-.194v.375h-.352v.554z"/><path d="M2.763 2.059h-.35l-.01.439.194.004.006-.249h.354v-.569h-.194v.375zM4.067 2.395h-.193v.375h-.352v.555h.193v-.361h.352v-.569z"/><path d="M3.513 2.396H3.07v.194h.637v-.353H4v-.193h-.487v.352zM3.724 3.71v-.194h-.375v-.433h-.554v.194h.36v.433h.569z"/><path d="M2.747 2.503v.439h.569v-.194h-.375v-.245h-.194zM2.605 4.067v-.193H2.23v-.352h-.555v.193h.361v.352h.569zM2.956 4v-.555h-.352V3.07H2.41v.569h.353V4h.193zM1.484 3.349h.352v-.554h-.194v.36H1.29v.569h.194v-.375z"/><path d="M2.043 3.316h.194v-.44H2.6v-.194h-.557v.634zM1.126 2.23h.371v-.555h-.193v.361H.933v.569h.193V2.23z"/><path d="M1.304 2.763H1v.193h.497v-.352h.433V2.41h-.626v.353zM1.651 1.909h.554v-.193h-.36V1.29h-.569v.194h.375v.425zM1.684 2.237h.375v.255h.194v-.449h-.569v.194z"/></g></g><path d="M28.926 20.723c-.508-.247-1.178-.527-2.012-.84s-1.777-.609-2.832-.889-2.2-.514-3.437-.703-2.507-.283-3.809-.283c-1.042 0-1.93.033-2.666.098s-1.354.15-1.855.254-.899.224-1.192.36-.517.278-.674.42-.257.287-.302.43-.069.274-.069.391c0 .39.196.733.586 1.026s.925.553 1.602.78 1.465.444 2.363.645 1.852.41 2.862.625 2.05.45 3.125.703 2.115.55 3.125.89 1.962.732 2.86 1.18 1.687.974 2.364 1.573 1.211 1.29 1.602 2.07.586 1.674.586 2.676c0 1.29-.228 2.396-.684 3.32s-1.064 1.706-1.826 2.344-1.644 1.15-2.647 1.533-2.054.68-3.154.89-2.213.344-3.34.41-2.197.097-3.213.097c-2.656 0-5.114-.218-7.373-.654s-4.254-.98-5.986-1.631v-6.406c1.784.99 3.818 1.764 6.104 2.324s4.73.84 7.334.84c1.536 0 2.79-.082 3.76-.245s1.728-.37 2.275-.625.918-.53 1.113-.83.293-.586.293-.859c0-.43-.195-.804-.586-1.123s-.924-.599-1.601-.84-1.465-.462-2.364-.664-1.852-.404-2.861-.605-2.048-.42-3.115-.655-2.106-.51-3.115-.83-1.963-.69-2.862-1.113-1.686-.924-2.363-1.504-1.211-1.25-1.602-2.012-.586-1.644-.586-2.646c0-1.185.209-2.207.625-3.067s.98-1.591 1.69-2.197 1.53-1.097 2.46-1.474 1.911-.671 2.94-.88 2.07-.35 3.125-.429 2.057-.117 3.008-.117c1.042 0 2.113.052 3.213.156s2.184.25 3.252.44 2.1.406 3.096.654 1.917.508 2.763.781v6.211zm31.888 14.199H45.853L43.333 40h-8.086L49.29 13.164h8.086L71.42 40h-8.086zM48.45 29.687h9.804l-4.882-9.883zm35.852-10.8v4.668h17.441v5.723h-17.44V40h-7.247V13.165h25.645v5.722H84.303zM110.136 40V13.164h27.168v5.723h-19.727v4.433h18.71v5.723h-18.71v5.234h20V40h-27.441zm53.684 0h-8.437l-13.574-26.836h8.086l9.765 20.195 9.746-20.195h8.086zm19.31 0V13.164h27.168v5.723H190.57v4.433h18.71v5.723h-18.71v5.234h20V40H183.13zm42.922 0h-7.246V13.164h18.164c1.953 0 3.61.202 4.971.605s2.467.977 3.32 1.72 1.472 1.637 1.856 2.685.576 2.217.576 3.506c0 1.132-.16 2.122-.479 2.968s-.748 1.573-1.289 2.178-1.168 1.117-1.884 1.533-1.472.762-2.266 1.036L250.565 40h-8.478l-8.125-9.883h-7.91V40zm14.317-18.359c0-.52-.068-.963-.205-1.328s-.374-.66-.713-.889-.79-.394-1.357-.498-1.273-.156-2.119-.156h-9.922v5.742h9.922c.846 0 1.553-.052 2.12-.156s1.018-.27 1.356-.498.577-.524.713-.889.205-.807.205-1.328zm41.36-.918c-.507-.247-1.178-.527-2.011-.84s-1.777-.609-2.832-.889-2.2-.514-3.437-.703-2.507-.283-3.81-.283c-1.04 0-1.93.033-2.665.098s-1.354.15-1.856.254-.898.224-1.191.36-.518.278-.674.42-.257.287-.303.43-.068.274-.068.391c0 .39.195.733.586 1.026s.925.553 1.602.78 1.464.444 2.363.645 1.852.41 2.861.625 2.051.45 3.125.703 2.116.55 3.125.89 1.963.732 2.862 1.18 1.686.974 2.363 1.573 1.21 1.29 1.601 2.07.586 1.674.586 2.676c0 1.29-.227 2.396-.683 3.32s-1.065 1.706-1.826 2.344-1.644 1.15-2.647 1.533-2.054.68-3.154.89-2.214.344-3.34.41-2.197.097-3.213.097c-2.656 0-5.114-.218-7.373-.654s-4.254-.98-5.986-1.631v-6.406c1.784.99 3.818 1.764 6.103 2.324s4.73.84 7.334.84c1.537 0 2.79-.082 3.76-.245s1.729-.37 2.275-.625.918-.53 1.114-.83.293-.586.293-.859c0-.43-.196-.804-.586-1.123s-.925-.599-1.602-.84-1.465-.462-2.363-.664-1.852-.404-2.861-.605-2.048-.42-3.116-.655-2.106-.51-3.115-.83-1.963-.69-2.861-1.113-1.686-.924-2.363-1.504-1.211-1.25-1.602-2.012-.586-1.644-.586-2.646c0-1.185.208-2.207.625-3.067s.98-1.591 1.69-2.197 1.53-1.097 2.46-1.474 1.911-.671 2.94-.88 2.07-.35 3.125-.429 2.057-.117 3.008-.117c1.041 0 2.112.052 3.213.156s2.184.25 3.252.44 2.1.406 3.095.654 1.918.508 2.764.781v6.211zM292.056 40V13.164h27.168v5.723h-19.727v4.433h18.71v5.723h-18.71v5.234h20V40h-27.441z" id="SvgjsG10270" transform="matrix(.95259 0 0 .95259 65.376 -8.89)" fill="url('#SvgjsLinearGradient10275')"/><path d="M.54 19.7v-2.82c.24.06.54.12.88.16.34.06.7.1 1.08.12l1.16.06c.4.02.78.04 1.12.04.94 0 1.6-.06 2-.16.38-.1.58-.28.58-.56 0-.24-.18-.42-.36-.56-.66-.44-1.44-.62-2.22-.8-2.2-.44-4.22-1.32-4.22-3.84 0-2.98 2.82-3.68 5.24-3.68 1.34 0 2.7.14 4 .46v2.82c-.2-.06-.46-.1-.78-.16-.34-.04-.68-.08-1.06-.12-.78-.08-1.52-.12-2.3-.12-.44 0-1.36 0-1.78.16-.28.1-.46.22-.46.54 0 .16.04.3.12.42.08.14.22.24.4.34.54.3 1.24.48 1.84.62.5.12 1 .26 1.52.4 1.76.48 2.92 1.46 2.92 3.34 0 3.1-3.08 3.76-5.56 3.76-1.36 0-2.78-.1-4.12-.42zM24.632 7.76h9.1v2.78h-6.1v1.96h4.9v2.78h-4.9v1.94h6.1V20h-9.1V7.76zm33.172 8.82v3.08c-1.24.34-2.48.48-3.76.48-3.76 0-6.28-2.58-6.28-6.24 0-3.76 2.62-6.24 6.26-6.24 1.26 0 2.58.1 3.78.48v3.08c-.98-.48-2.52-.66-3.6-.66-2.44 0-3.44 1-3.44 3.32 0 2.46 1.18 3.36 3.46 3.36 1.02 0 2.68-.16 3.58-.66zm21.932-8.82h3V15c0 3.18-2.28 5.1-5.3 5.1-3.1 0-5.3-2.04-5.3-5.1V7.76h3V15c0 1.44.86 2.32 2.3 2.32 1.48 0 2.3-.86 2.3-2.32V7.76zm20.852 2.82v2.92h2.8c.92 0 1.46-.54 1.46-1.46s-.54-1.46-1.46-1.46h-2.8zm4.54 4.9c.56.76 1.12 1.52 1.7 2.26.56.74 1.12 1.5 1.68 2.26h-3.66c-.72-.96-1.42-1.92-2.12-2.88-.7-.94-1.42-1.9-2.14-2.86V20h-3V7.76h5.8c2.28 0 4.22 1.74 4.22 4.04 0 1.62-1 3.04-2.48 3.68zm17.392-7.72h9.1v2.78h-6.1v1.96h4.9v2.78h-4.9v1.94h6.1V20h-9.1V7.76zm26.952 11.14-1.44 4.1h-1.44l1.06-3.04c-.92-.04-1.54-.8-1.54-1.7 0-1.02.72-1.74 1.74-1.74 1.06 0 1.72.68 1.72 1.74 0 .2-.04.42-.1.64zm31.764.8v-2.82c.24.06.54.12.88.16.34.06.7.1 1.08.12l1.16.06c.4.02.78.04 1.12.04.94 0 1.6-.06 2-.16.38-.1.58-.28.58-.56 0-.24-.18-.42-.36-.56-.66-.44-1.44-.62-2.22-.8-2.2-.44-4.22-1.32-4.22-3.84 0-2.98 2.82-3.68 5.24-3.68 1.34 0 2.7.14 4 .46v2.82c-.2-.06-.46-.1-.78-.16-.34-.04-.68-.08-1.06-.12-.78-.08-1.52-.12-2.3-.12-.44 0-1.36 0-1.78.16-.28.1-.46.22-.46.54 0 .16.04.3.12.42.08.14.22.24.4.34.54.3 1.24.48 1.84.62.5.12 1 .26 1.52.4 1.76.48 2.92 1.46 2.92 3.34 0 3.1-3.08 3.76-5.56 3.76-1.36 0-2.78-.1-4.12-.42zm33.712-3.12v3.08c-1.24.34-2.48.48-3.76.48-3.76 0-6.28-2.58-6.28-6.24 0-3.76 2.62-6.24 6.26-6.24 1.26 0 2.58.1 3.78.48v3.08c-.98-.48-2.52-.66-3.6-.66-2.44 0-3.44 1-3.44 3.32 0 2.46 1.18 3.36 3.46 3.36 1.02 0 2.68-.16 3.58-.66zm22.072.94h-4.5l-.88 2.48h-3.26l4.9-12.24h3l4.9 12.24h-3.28zm-3.52-2.78h2.54l-1.26-3.56zm30.752 2.48V20h-9.1V7.76h3v9.46h6.1zm21.852.3h-4.5l-.88 2.48h-3.26l4.9-12.24h3l4.9 12.24h-3.28zm-3.52-2.78h2.54l-1.26-3.56zm30.672-1.02c.88.62 1.4 1.54 1.4 2.62 0 2.08-1.92 3.66-3.92 3.66h-6.5V7.76h6.1c1.6 0 2.92.86 3.62 2.28.2.46.3.92.3 1.4 0 .9-.36 1.64-1 2.28zm-6.02-3.18v1.96h3.1c.52 0 .92-.5.92-1 0-.52-.38-.96-.92-.96h-3.1zm0 4.74v1.94h3.5c.54 0 .92-.44.92-.96 0-.26-.1-.5-.28-.7a.896.896 0 0 0-.64-.28h-3.5zm30.972 1.94V20h-9.1V7.76h3v9.46h6.1zm14.272-9.46h9.1v2.78h-6.1v1.96h4.9v2.78h-4.9v1.94h6.1V20h-9.1V7.76zm26.952 11.14-1.44 4.1h-1.44l1.06-3.04c-.92-.04-1.54-.8-1.54-1.7 0-1.02.72-1.74 1.74-1.74 1.06 0 1.72.68 1.72 1.74 0 .2-.04.42-.1.64zm35.364-8.32v2.92h2.8c.92 0 1.46-.54 1.46-1.46s-.54-1.46-1.46-1.46h-2.8zm4.54 4.9c.56.76 1.12 1.52 1.7 2.26.56.74 1.12 1.5 1.68 2.26h-3.66c-.72-.96-1.42-1.92-2.12-2.88-.7-.94-1.42-1.9-2.14-2.86V20h-3V7.76h5.8c2.28 0 4.22 1.74 4.22 4.04 0 1.62-1 3.04-2.48 3.68zm17.392-7.72h9.1v2.78h-6.1v1.96h4.9v2.78h-4.9v1.94h6.1V20h-9.1V7.76zm32.012 0h3.28L467.12 20h-3l-4.9-12.24h3.26l3.14 8.82zm22.552 9.56c2.18 0 3.3-1.4 3.3-3.44 0-2.16-1.2-3.44-3.3-3.44-2.2 0-3.3 1.4-3.3 3.44 0 2.12 1.22 3.44 3.3 3.44zm0 2.78c-3.76 0-6.3-2.56-6.3-6.22 0-3.78 2.66-6.22 6.3-6.22 3.78 0 6.3 2.54 6.3 6.22 0 3.8-2.64 6.22-6.3 6.22zm30.012-2.88V20h-9.1V7.76h3v9.46h6.1zm21.712-9.46h3V15c0 3.18-2.28 5.1-5.3 5.1-3.1 0-5.3-2.04-5.3-5.1V7.76h3V15c0 1.44.86 2.32 2.3 2.32 1.48 0 2.3-.86 2.3-2.32V7.76zm17.132 0h10.2v2.78h-3.6V20h-3v-9.46h-3.6V7.76zm24.432 0h3V20h-3V7.76zm23.892 9.56c2.18 0 3.3-1.4 3.3-3.44 0-2.16-1.2-3.44-3.3-3.44-2.2 0-3.3 1.4-3.3 3.44 0 2.12 1.22 3.44 3.3 3.44zm0 2.78c-3.76 0-6.3-2.56-6.3-6.22 0-3.78 2.66-6.22 6.3-6.22 3.78 0 6.3 2.54 6.3 6.22 0 3.8-2.64 6.22-6.3 6.22zm28.712-12.34h3V20h-3l-4.8-7.16V20h-3V7.76h3l4.8 7.16V7.76zm25.632 9.76h-4.5l-.88 2.48h-3.26l4.9-12.24h3l4.9 12.24h-3.28zm-3.52-2.78h2.54l-1.26-3.56zm24.652-4.16v2.92h2.8c.92 0 1.46-.54 1.46-1.46s-.54-1.46-1.46-1.46h-2.8zm4.54 4.9c.56.76 1.12 1.52 1.7 2.26.56.74 1.12 1.5 1.68 2.26h-3.66c-.72-.96-1.42-1.92-2.12-2.88-.7-.94-1.42-1.9-2.14-2.86V20h-3V7.76h5.8c2.28 0 4.22 1.74 4.22 4.04 0 1.62-1 3.04-2.48 3.68zM709.14 20v-4.54c-2.42-.54-3.82-2.54-3.82-4.94V7.76h3v2.76c0 1.44.86 2.32 2.3 2.32 1.48 0 2.3-.86 2.3-2.32V7.76h3v2.76c0 2.44-1.42 4.38-3.78 4.94V20h-3z" transform="matrix(.4049 0 0 .4049 73.781 36.898)" id="SvgjsG10271" fill="#1e376d"/></g></svg>